M48
;GenerationSoftware,Autodesk,EAGLE,9.6.2*%
;CreationDate,2022-02-22T21:00:47Z*%
FMAT,2
ICI,OFF
METRIC,TZ,000.000
T4C0.711
T3C0.813
T2C0.914
T1C1.016
%
G90
M71
T1
X48260Y58420
X72390Y55880
X35560Y55880
X35560Y58420
X38100Y55880
X38100Y58420
X40640Y55880
X40640Y58420
X43180Y55880
X43180Y58420
X45720Y55880
X45720Y58420
X48260Y55880
X85852Y55753
X50800Y55880
X50800Y58420
X53340Y55880
X53340Y58420
X80010Y27686
X82550Y27686
X85090Y27686
X87630Y27686
X35560Y34290
X35560Y31750
X35560Y29210
X35560Y26670
X69850Y58420
X85852Y58293
X85852Y60833
X85852Y63373
X41910Y62230
X39370Y62230
X36830Y62230
X34290Y62230
X69850Y55880
X67310Y58420
X67310Y55880
X64770Y58420
X64770Y55880
X62230Y58420
X62230Y55880
X74930Y58420
X74930Y55880
X72390Y58420
T2
X45720Y30480
X48260Y27940
X48260Y30480
X43180Y27940
X43180Y30480
X45720Y27940
T3
X57785Y58547
X81153Y31242
X82550Y63500
X82550Y55880
X58420Y63500
X50800Y63500
X59055Y56642
X49530Y36830
X56515Y56642
X36830Y36830
X39370Y36830
X41910Y36830
X44450Y36830
X46990Y36830
X81153Y33782
X52070Y36830
X54610Y36830
X57150Y36830
X59690Y36830
X62230Y36830
X64770Y36830
X67310Y36830
X69850Y36830
X72390Y36830
X74930Y36830
X77470Y36830
X80010Y36830
X82550Y36830
X85090Y36830
X85090Y52070
X82550Y52070
X80010Y52070
X77470Y52070
X74930Y52070
X72390Y52070
X69850Y52070
X67310Y52070
X64770Y52070
X62230Y52070
X59690Y52070
X57150Y52070
X54610Y52070
X52070Y52070
X49530Y52070
X46990Y52070
X44450Y52070
X41910Y52070
X39370Y52070
X36830Y52070
X59690Y27940
X59690Y30480
X74930Y27940
X74930Y30480
X64770Y33020
X62230Y33020
X69723Y29210
X64897Y29210
X55880Y34290
X55880Y26670
T4
X79248Y60960
X79248Y62738
M30